IKResults
version=1
nRows=13
nColumns=38
inDegrees=yes

Units are S.I. units (second, meters, Newtons, ...)
If the header above contains a line with 'inDegrees', this indicates whether rotational values are in degrees (yes) or radians (no).

endheader
time	pelvis_tilt	pelvis_list	pelvis_rotation	pelvis_tx	pelvis_ty	pelvis_tz	hip_flexion_r	hip_adduction_r	hip_rotation_r	knee_angle_r	ankle_angle_r	subtalar_angle_r	mtp_angle_r	hip_flexion_l	hip_adduction_l	hip_rotation_l	knee_angle_l	ankle_angle_l	subtalar_angle_l	mtp_angle_l	lumbar_extension	lumbar_bending	lumbar_rotation	arm_flex_r	arm_add_r	arm_rot_r	elbow_flex_r	pro_sup_r	wrist_flex_r	wrist_dev_r	arm_flex_l	arm_add_l	arm_rot_l	elbow_flex_l	pro_sup_l	wrist_flex_l	wrist_dev_l
      2.50300000	      0.81137769	   -184.01193075	    -95.59686442	      0.06397954	     -0.14540814	      1.69869430	    -12.68834737	     -5.81691669	    -10.54190541	     19.55124900	      1.27263245	      0.37700000	      0.00000000	     -2.90619990	     -1.47696746	    -12.18878390	     21.77952950	     -5.17457206	      0.00000000	      0.00000000	    -16.98182177	     -2.51494767	     -4.98955240	      2.17873776	    -42.64762153	     26.83904618	     75.60994684	    110.52249205	      0.00000000	      0.00000000	     -4.34188490	    -42.49015839	     27.23549888	     79.13013281	    110.71904278	      0.00000000	      0.00000000
      2.52000000	      0.57991609	   -184.56827216	    -95.08561828	      0.06438222	     -0.14496871	      1.69760301	    -13.16228041	     -6.22469753	    -11.15319699	     21.40548553	      0.91643070	      0.37700000	      0.00000000	     -2.50893120	     -1.24128037	    -11.81659356	     22.64378849	     -3.27340190	      0.00000000	      0.00000000	    -17.98000299	     -2.82699249	     -4.96010884	      1.35151485	    -43.37472767	     26.88825980	     76.68244704	    110.46870152	      0.00000000	      0.00000000	     -4.20276668	    -43.00427161	     27.56400191	     80.22621718	    110.67707527	      0.00000000	      0.00000000
      2.53600000	      0.25928961	   -185.18110907	    -94.50193304	      0.06457705	     -0.14447658	      1.69637606	    -13.72497482	     -6.69125058	    -11.74414167	     23.22482652	      0.47959957	      0.37700000	      0.00000000	     -2.11651398	     -0.97446116	    -11.63361780	     23.62088976	     -1.50619715	      0.00000000	      0.00000000	    -18.99483334	     -3.19492793	     -4.98780114	      0.48831621	    -44.10460913	     26.98557502	     77.72947340	    110.41646182	      0.00000000	      0.00000000	     -3.88622298	    -43.61603508	     28.05400717	     81.20494756	    110.64737410	      0.00000000	      0.00000000
      2.55300000	     -0.13915570	   -185.79537266	    -93.96821416	      0.06452052	     -0.14385573	      1.69487441	    -14.36653625	     -7.22955162	    -12.34428459	     24.88430405	     -0.08425492	      0.37700000	      0.00000000	     -1.66452613	     -0.67773209	    -11.64038009	     24.77176782	      0.11221217	      0.00000000	      0.00000000	    -19.91797303	     -3.63014905	     -5.01342776	     -0.33378080	    -44.75559308	     27.15721579	     78.65891012	    110.37276853	      0.00000000	      0.00000000	     -3.53027062	    -44.22075470	     28.69483722	     82.01249262	    110.63239282	      0.00000000	      0.00000000
      2.57000000	     -0.61612164	   -186.82080376	    -93.05236188	      0.06441830	     -0.14368445	      1.69360759	    -15.73922849	     -7.67302144	    -13.22837915	     26.05922219	     -0.86748898	      0.37700000	      0.00000000	     -1.59213598	     -0.33859338	    -11.34318845	     25.95101742	      1.39608187	      0.00000000	      0.00000000	    -21.25384521	     -4.04709909	     -4.95960463	     -1.83178974	    -45.27672218	     26.51339019	     79.79449851	    110.30234242	      0.00000000	      0.00000000	     -1.30128136	    -45.57477865	     32.38043263	     82.69675192	    110.76894295	      0.00000000	      0.00000000
      2.58600000	     -1.19497597	   -187.26318130	    -92.63857659	      0.06370085	     -0.14258835	      1.69191876	    -16.23284227	     -8.33213515	    -13.53564642	     27.58439865	     -1.46068256	      0.37700000	      0.00000000	     -0.89456330	      0.01026748	    -11.85273990	     27.30569813	      2.51708216	      0.00000000	      0.00000000	    -21.76817128	     -4.62166142	     -4.25831000	     -4.05624574	    -45.64201585	     24.98770056	     81.02438008	    110.21611589	      0.00000000	      0.00000000	      1.13379997	    -46.40824594	     35.99363210	     82.76916032	    110.94442761	      0.00000000	      0.00000000
      2.60300000	     -1.71202398	   -187.69006508	    -92.15588647	      0.06305072	     -0.14143650	      1.69034085	    -16.81069017	     -8.86944043	    -13.92069192	     28.87723730	     -2.12046837	      0.37700000	      0.00000000	     -0.17764407	      0.25101813	    -12.42015909	     28.69106803	      3.45478231	      0.00000000	      0.00000000	    -22.25621298	     -5.11530172	     -4.38932069	     -4.62830693	    -46.05412583	     25.41795535	     81.71837053	    110.19740344	      0.00000000	      0.00000000	      1.46106784	    -46.88205327	     36.34544766	     83.28593660	    110.93139430	      0.00000000	      0.00000000
      2.62000000	     -2.21786259	   -188.03985806	    -91.76313829	      0.06215840	     -0.14040365	      1.68872369	    -17.44898712	     -9.30498184	    -13.97523558	     29.73361439	     -3.00821903	      0.37700000	      0.00000000	      0.46687351	      0.51335562	    -12.83239031	     29.82646424	      4.23364391	      0.00000000	      0.00000000	    -22.54257119	     -5.63013876	     -4.46480013	     -5.05126115	    -46.22668625	     25.80906060	     81.96197928	    110.19988552	      0.00000000	      0.00000000	      1.81230510	    -47.18156836	     36.56311339	     83.39628771	    110.93590630	      0.00000000	      0.00000000
      2.63600000	     -2.89711229	   -188.62046637	    -91.11996236	      0.06088487	     -0.13921855	      1.68814275	    -18.23570317	     -9.87500394	    -14.65201434	     30.84853939	     -3.39994017	      0.37700000	      0.00000000	      1.02044707	      0.82369832	    -13.39797904	     31.15486548	      4.51591602	      0.00000000	      0.00000000	    -23.01268556	     -6.30933517	     -3.78360457	     -7.11452558	    -46.35564164	     24.53890472	     82.99057918	    110.15746002	      0.00000000	      0.00000000	      6.57449974	    -48.56315331	     43.70828761	     83.41760290	    111.23733258	      0.00000000	      0.00000000
      2.65300000	     -3.48602633	   -188.82664439	    -90.66253229	      0.05966225	     -0.13792957	      1.68743549	    -18.65327547	    -10.34699327	    -14.99776271	     31.68872782	     -3.91514813	      0.37700000	      0.00000000	      1.76263963	      1.11603372	    -13.88187616	     32.14682695	      4.72573506	      0.00000000	      0.00000000	    -23.01747099	     -6.95496212	     -3.90202592	     -7.25318500	    -46.38763669	     25.25329098	     83.07117671	    110.20856258	      0.00000000	      0.00000000	      8.01814273	    -49.14170308	     45.64313384	     83.51435300	    111.30631003	      0.00000000	      0.00000000
      2.67000000	     -4.02786775	   -189.06047174	    -90.32174458	      0.05827326	     -0.13685866	      1.68738217	    -19.05216441	    -10.77855362	    -15.24475659	     32.39712914	     -4.34780150	      0.37700000	      0.00000000	      2.34222245	      1.39440703	    -14.37547410	     32.86078646	      4.71066142	      0.00000000	      0.00000000	    -23.02985161	     -7.60014321	     -3.74413970	     -7.63406827	    -46.26288629	     25.43837373	     83.15015685	    110.24402429	      0.00000000	      0.00000000	     10.29202726	    -49.65095723	     48.54530775	     83.39308717	    111.42222792	      0.00000000	      0.00000000
      2.68600000	     -4.25072272	   -189.26813705	    -90.12255110	      0.05727954	     -0.13607896	      1.68783240	    -19.39129727	    -10.88345431	    -15.21921016	     32.84403774	     -4.82408809	      0.37700000	      0.00000000	      2.77057842	      1.47823320	    -14.57656753	     33.23895147	      4.83341747	      0.00000000	      0.00000000	    -23.06515266	     -7.87120554	     -3.73422476	     -7.62712216	    -46.08580529	     25.53897728	     83.11052737	    110.25126656	      0.00000000	      0.00000000	     10.83216026	    -49.62938294	     48.41056446	     83.28061036	    111.42520176	      0.00000000	      0.00000000
      2.70300000	     -4.84921707	   -189.53896851	    -89.89370866	      0.05560548	     -0.13555735	      1.68940165	    -19.66170433	    -11.43637568	    -15.67652093	     33.45990238	     -5.01338558	      0.37700000	      0.00000000	      3.06653057	      1.92197520	    -14.90139028	     33.34205252	      4.25226484	      0.00000000	      0.00000000	    -23.09154026	     -8.66285343	     -2.90956820	     -9.00505183	    -45.43665599	     23.84716766	     83.07819594	    110.25930219	      0.00000000	      0.00000000	     15.93888569	    -49.99514038	     55.18473762	     82.49903221	    111.68878828	      0.00000000	      0.00000000
